<svg
    width="24"
    height="24"
    viewBox="0 0 24 24"
    fill="none"
    xmlns="http://www.w3.org/2000/svg"
    >
    <path
        fillRule="evenodd"
        clipRule="evenodd"
        d="M7.97598 2.14282H16.3099C19.5268 2.14282 22.1445 4.75968 22.1445 7.97574V16.3097C22.1445 19.5266 19.5276 22.1443 16.3116 22.1443H7.97765C4.76075 22.1443 2.14307 19.5274 2.14307 16.3113V7.97741C2.14307 4.76051 4.75992 2.14282 7.97598 2.14282ZM12.9338 12.4671V17.8675H10.8003V12.4671H9.00021V10.3336H10.8003V8.80017C10.8003 7.00004 11.9338 5.99997 13.5339 5.99997C14.0156 5.99997 14.4687 6.02874 14.7795 6.04848C14.9418 6.05879 15.0654 6.06664 15.134 6.06664V8.00011H14.0006C13.1338 8.00011 12.9338 8.40014 12.9338 9.00018V10.3336H15.0006L14.734 12.4671H12.9338Z"
        fill="white"
    ></path>
</svg>