<svg
    width="24"
    height="24"
    viewBox="0 0 24 24"
    fill="none"
    xmlns="http://www.w3.org/2000/svg"
    >
    <path
        d="M12.1436 15.4771C13.9847 15.4771 15.4772 13.9846 15.4772 12.1435C15.4772 10.3024 13.9847 8.80994 12.1436 8.80994C10.3025 8.80994 8.81006 10.3024 8.81006 12.1435C8.81006 13.9846 10.3025 15.4771 12.1436 15.4771Z"
        fill="white"
    ></path>
    <path
        d="M16.3099 2.14282H7.97598C4.75992 2.14282 2.14307 4.76051 2.14307 7.97741V16.3113C2.14307 19.5274 4.76075 22.1443 7.97765 22.1443H16.3116C19.5276 22.1443 22.1445 19.5266 22.1445 16.3097V7.97574C22.1445 4.75968 19.5268 2.14282 16.3099 2.14282ZM12.1438 17.1439C9.38608 17.1439 7.14342 14.9012 7.14342 12.1435C7.14342 9.38584 9.38608 7.14318 12.1438 7.14318C14.9015 7.14318 17.1441 9.38584 17.1441 12.1435C17.1441 14.9012 14.9015 17.1439 12.1438 17.1439ZM17.9775 7.14318C17.5175 7.14318 17.1441 6.76982 17.1441 6.30979C17.1441 5.84975 17.5175 5.47639 17.9775 5.47639C18.4376 5.47639 18.8109 5.84975 18.8109 6.30979C18.8109 6.76982 18.4376 7.14318 17.9775 7.14318Z"
        fill="white"
    ></path>
</svg>