<svg
    width="24"
    height="24"
    viewBox="0 0 24 24"
    fill="none"
    xmlns="http://www.w3.org/2000/svg"
    >
    <path
        fillRule="evenodd"
        clipRule="evenodd"
        d="M16.3099 2.14282H7.97598C4.75992 2.14282 2.14307 4.76051 2.14307 7.97741V16.3113C2.14307 19.5274 4.76075 22.1443 7.97765 22.1443H16.3116C19.5276 22.1443 22.1445 19.5266 22.1445 16.3097V7.97574C22.1445 4.75968 19.5268 2.14282 16.3099 2.14282ZM9.12677 8.19166C9.12677 8.93669 8.5228 9.54066 7.77777 9.54066C7.03275 9.54066 6.42878 8.93669 6.42878 8.19166C6.42878 7.44663 7.03275 6.84267 7.77777 6.84267C8.5228 6.84267 9.12677 7.44663 9.12677 8.19166ZM18.0002 18.0243V13.7329C18.0002 11.434 16.7734 10.3644 15.1369 10.3644C13.816 10.3644 13.2258 11.0918 12.8954 11.601V10.5402H10.4083C10.4418 11.2428 10.4083 18.0243 10.4083 18.0243H12.8956V13.8447C12.8956 13.6207 12.9125 13.3981 12.9781 13.2381C13.158 12.7906 13.5669 12.328 14.254 12.328C15.154 12.328 15.5137 13.0144 15.5137 14.0203V18.0243H18.0002ZM12.8954 11.601V11.6252H12.8791C12.8816 11.6212 12.8846 11.6168 12.8876 11.6125C12.8903 11.6087 12.893 11.6048 12.8954 11.601ZM9.03301 18.0243H6.54657V10.5402H9.03301V18.0243Z"
        fill="white"
    ></path>
</svg>