<svg
            width="28"
            height="28"
            viewBox="0 0 28 28"
            fill="none"
            xmlns="http://www.w3.org/2000/svg"
          >
            <path
              fill-rule="evenodd"
              clip-rule="evenodd"
              d="M17.1427 0.678542C16.8453 0.635904 16.5465 0.723844 16.3088 0.913047C16.0645 1.10492 15.9118 1.38206 15.8786 1.69251C15.8082 2.32008 16.261 2.88769 16.8878 2.95831C21.21 3.44065 24.5695 6.80767 25.0555 11.1434C25.1206 11.7243 25.6079 12.1627 26.1895 12.1627C26.2333 12.1627 26.2758 12.16 26.3196 12.1547C26.6237 12.1214 26.8946 11.9708 27.0858 11.731C27.2757 11.4911 27.362 11.1927 27.3275 10.8875C26.722 5.47791 22.5352 1.27946 17.1427 0.678542ZM17.2254 5.32126C16.5907 5.20401 16.0078 5.60906 15.8869 6.22864C15.7661 6.84821 16.1724 7.45313 16.7899 7.57438C18.6489 7.9368 20.0843 9.37581 20.4482 11.2412V11.2425C20.5517 11.7795 21.0245 12.1699 21.5689 12.1699C21.6419 12.1699 21.7149 12.1632 21.7893 12.1499C22.4068 12.026 22.8131 11.4224 22.6923 10.8015C22.1492 8.01541 20.0047 5.86355 17.2254 5.32126ZM19.3347 18.1227C19.9367 17.7756 20.6166 17.3835 21.4742 17.566C22.251 17.7299 24.8988 19.879 25.6238 20.6239C26.0992 21.1115 26.3634 21.6152 26.4046 22.1188C26.4763 24.0948 23.7913 26.3506 23.3027 26.6317C22.6534 27.0994 21.8978 27.3353 21.0493 27.3353C20.1822 27.3353 19.2155 27.0888 18.1612 26.5971C12.4407 24.2094 3.70201 15.6433 1.39152 9.96719C0.432795 7.85397 0.426156 6.11117 1.37558 4.8014C1.75402 4.18715 3.91181 1.61958 5.84386 1.70086C6.35775 1.74483 6.85702 2.00865 7.34701 2.48832C8.08796 3.21449 10.1833 5.87 10.3453 6.64946C10.5246 7.51554 10.1315 8.2044 9.78232 8.80931C9.70783 8.93935 9.60747 9.09367 9.49752 9.26274C9.08023 9.90437 8.52482 10.7584 8.72135 11.3036C10.1302 14.7626 13.3848 17.7805 16.8453 19.1982C17.3804 19.3927 18.2339 18.8333 18.8735 18.4141C19.0401 18.3049 19.1922 18.2053 19.3204 18.1309L19.3347 18.1227Z"
              fill="#BECD00"
            ></path>
          </svg>