<svg
    width="24"
    height="24"
    viewBox="0 0 24 24"
    fill="none"
    xmlns="http://www.w3.org/2000/svg"
    >
    <path
        fillRule="evenodd"
        clipRule="evenodd"
        d="M7.97598 2.14282H16.3099C19.5268 2.14282 22.1445 4.75968 22.1445 7.97574V16.3097C22.1445 19.5266 19.5276 22.1443 16.3116 22.1443H7.97765C4.76075 22.1443 2.14307 19.5274 2.14307 16.3113V7.97741C2.14307 4.76051 4.75992 2.14282 7.97598 2.14282ZM18.247 12.6477C18.247 13.6848 18.1528 14.7375 18.1528 14.7375C18.1528 14.7375 18.0429 15.6174 17.6818 16.0103C17.2602 16.4743 16.8009 16.5231 16.5402 16.5507C16.5097 16.5539 16.4818 16.5569 16.4571 16.5602C14.73 16.6859 12.1393 16.7016 12.1393 16.7016C12.1393 16.7016 8.92061 16.6545 7.93144 16.5602C7.88906 16.5527 7.83758 16.5468 7.77906 16.5401H7.77905C7.46904 16.5046 6.96169 16.4464 6.56545 16.0103C6.18862 15.6174 6.09442 14.7375 6.09442 14.7375C6.09442 14.7375 6.00021 13.6848 6.00021 12.6477V11.6736C6.00021 10.6365 6.09442 9.58377 6.09442 9.58377C6.09442 9.58377 6.20432 8.70386 6.56545 8.31104C6.99554 7.83759 7.46491 7.78334 7.72253 7.75356C7.74706 7.75073 7.76966 7.74811 7.79013 7.74538C9.53295 7.61968 12.1236 7.60397 12.1236 7.60397C12.1236 7.60397 14.7143 7.61968 16.4414 7.74538C16.463 7.74826 16.487 7.751 16.5132 7.754C16.7741 7.78376 17.2538 7.83851 17.6818 8.29533C18.0586 8.68814 18.1528 9.58377 18.1528 9.58377C18.1528 9.58377 18.247 10.6365 18.247 11.6736V12.6477ZM10.8518 10.2124V13.8264L14.1804 12.0351L10.8518 10.2124Z"
        fill="white"
    ></path>
</svg>